<svg xmlns="http://www.w3.org/2000/svg" width="187" height="95" viewBox="0 0 187 95">
  <g id="Group_32530" data-name="Group 32530" transform="translate(-302 -4481)">
    <rect id="Rectangle_1525" data-name="Rectangle 1525" width="187" height="95" transform="translate(302 4481)" fill="none"/>
    <g id="Group_32529" data-name="Group 32529" transform="translate(120.465 3631.07)">
      <path id="Path_303" data-name="Path 303" d="M216.108,895.37l-4.535,14.824-4.557-14.824h-4.342L198.1,910.194l-4.514-14.824-5.048-.043,7.059,23.145h4.022l5.219-15.893,5.241,15.893H214.1l7.059-23.1Z" transform="translate(0 -14.086)" fill="#0076be"/>
      <path id="Path_304" data-name="Path 304" d="M294.158,895.39a10.744,10.744,0,0,0-6.107-1.679,11.488,11.488,0,0,0-5.99,1.54,10.644,10.644,0,0,0-4.043,4.332,14.046,14.046,0,0,0-1.454,6.578,12.625,12.625,0,0,0,1.487,6.2,10.74,10.74,0,0,0,4.139,4.214,12.18,12.18,0,0,0,6.16,1.519,11.288,11.288,0,0,0,6.107-1.733,10.338,10.338,0,0,0,4.1-4.856l-5.091-1.54a5.52,5.52,0,0,1-2.128,2.449,6.162,6.162,0,0,1-3.284.845,5.412,5.412,0,0,1-4.492-1.925,7.523,7.523,0,0,1-1.464-4H298.81a16.212,16.212,0,0,0-.919-7.209,9.958,9.958,0,0,0-3.733-4.738m-5.893,2.835a4.807,4.807,0,0,1,4.107,1.733,7.257,7.257,0,0,1,1.2,3.486H282.219a7.228,7.228,0,0,1,1.34-3.262,5.62,5.62,0,0,1,4.706-1.957" transform="translate(-55.38 -13.068)" fill="#0076be"/>
      <rect id="Rectangle_428" data-name="Rectangle 428" width="5.155" height="31.445" transform="translate(246.955 872.93)" fill="#0076be"/>
      <rect id="Rectangle_429" data-name="Rectangle 429" width="5.155" height="31.445" transform="translate(257.252 872.93)" fill="#0076be"/>
      <path id="Path_305" data-name="Path 305" d="M414.564,895.39a10.744,10.744,0,0,0-6.107-1.679,11.488,11.488,0,0,0-5.99,1.54,10.642,10.642,0,0,0-4.043,4.332,14.047,14.047,0,0,0-1.455,6.578,12.63,12.63,0,0,0,1.487,6.2,10.741,10.741,0,0,0,4.139,4.214,12.18,12.18,0,0,0,6.16,1.519,11.289,11.289,0,0,0,6.107-1.733,10.338,10.338,0,0,0,4.1-4.856l-5.091-1.54a5.523,5.523,0,0,1-2.129,2.449,6.16,6.16,0,0,1-3.283.845,5.412,5.412,0,0,1-4.492-1.925,7.523,7.523,0,0,1-1.464-4h16.716a16.21,16.21,0,0,0-.92-7.209,9.956,9.956,0,0,0-3.733-4.738m-5.893,2.835a4.807,4.807,0,0,1,4.107,1.733,7.255,7.255,0,0,1,1.2,3.486H402.625a7.223,7.223,0,0,1,1.34-3.262,5.62,5.62,0,0,1,4.706-1.957" transform="translate(-131.128 -13.068)" fill="#0076be"/>
      <path id="Path_306" data-name="Path 306" d="M480.185,898.01a6.726,6.726,0,0,0-3.476-3.294,13.649,13.649,0,0,0-5.423-1.005,10.705,10.705,0,0,0-6.492,1.775,8.724,8.724,0,0,0-3.262,4.706l4.706,1.476a4.036,4.036,0,0,1,2.032-2.5,6.667,6.667,0,0,1,3.016-.727,4.961,4.961,0,0,1,3.679,1.133,4.337,4.337,0,0,1,1.041,2.761c-.93.138-1.839.269-2.72.394q-2.192.311-4.064.674a28.324,28.324,0,0,0-3.262.813,9.127,9.127,0,0,0-2.994,1.594,6.01,6.01,0,0,0-1.712,2.311,7.753,7.753,0,0,0-.556,3.005,7,7,0,0,0,.888,3.487,6.507,6.507,0,0,0,2.62,2.535,8.693,8.693,0,0,0,4.236.952,10.562,10.562,0,0,0,5.208-1.166,9.556,9.556,0,0,0,2.9-2.589v3.113h4.514V903.273a27.7,27.7,0,0,0-.128-2.77,7.02,7.02,0,0,0-.749-2.492m-4.749,12.15a5.335,5.335,0,0,1-.995,1.69,5.962,5.962,0,0,1-1.979,1.519,6.639,6.639,0,0,1-2.995.62,4.8,4.8,0,0,1-2.043-.385,2.931,2.931,0,0,1-1.251-1.037,2.685,2.685,0,0,1-.427-1.508,2.5,2.5,0,0,1,.331-1.305,3.19,3.19,0,0,1,.952-.984,6.552,6.552,0,0,1,1.519-.748,19.642,19.642,0,0,1,2.117-.546q1.2-.245,2.866-.524,1.068-.177,2.408-.391c-.008.392-.023.835-.044,1.343a6.616,6.616,0,0,1-.46,2.257" transform="translate(-171.221 -13.068)" fill="#0076be"/>
      <path id="Path_307" data-name="Path 307" d="M537.9,914.741a2.2,2.2,0,0,0-1.59-.629H527.37l10.878-15.017a2.538,2.538,0,0,0,.525-1.508,2.3,2.3,0,0,0-.589-1.547,2.077,2.077,0,0,0-1.592-.715H524.107a2.216,2.216,0,0,0-1.549.609,2.172,2.172,0,0,0,0,3.143,2.216,2.216,0,0,0,1.55.61h8.168l-10.815,14.98a2.4,2.4,0,0,0-.591,1.585,2.233,2.233,0,0,0,.57,1.463,2.091,2.091,0,0,0,1.652.758h13.216a2.194,2.194,0,0,0,1.591-.63,2.222,2.222,0,0,0,0-3.1Z" transform="translate(-209.077 -14.083)" fill="#0076be"/>
      <path id="Path_308" data-name="Path 308" d="M594.426,895.839l-.438.017.016.438h.422l-.423.043a8.262,8.262,0,0,1-16.524-.031h-.422l.423-.044v-.423h-4.8l-.407.02-.016.406v.077a13.558,13.558,0,0,0,11.2,13.253v6.921a2.283,2.283,0,0,0,1.1,1.953v9.8a4.779,4.779,0,0,1-4.773,4.773h-.625a4.674,4.674,0,0,1-4.573-3.734,4.595,4.595,0,1,0-2.4.047,7.054,7.054,0,0,0,6.975,6.064h.625a7.16,7.16,0,0,0,7.151-7.151v-9.8a2.284,2.284,0,0,0,1.1-1.949v-6.921a13.559,13.559,0,0,0,11.2-13.26v-.495Zm-21.194,32.236a3.108,3.108,0,1,1,3.108-3.108,3.108,3.108,0,0,1-3.108,3.108" transform="translate(-239.157 -14.384)" fill="#ed4815"/>
      <path id="Path_309" data-name="Path 309" d="M579.183,881.186s3.208-1.266,3.208-3.5a1.848,1.848,0,0,0-1.744-1.767,1.615,1.615,0,0,0-1.509,1.039,1.639,1.639,0,0,0-1.509-1.039,1.724,1.724,0,0,0-1.661,1.767c0,2.306,3.215,3.5,3.215,3.5" transform="translate(-243.731 -1.879)" fill="#ed4815"/>
      <path id="Path_310" data-name="Path 310" d="M639.236,881.186s3.208-1.266,3.208-3.5a1.849,1.849,0,0,0-1.744-1.767,1.615,1.615,0,0,0-1.509,1.039,1.638,1.638,0,0,0-1.509-1.039,1.724,1.724,0,0,0-1.661,1.767c0,2.306,3.215,3.5,3.215,3.5" transform="translate(-281.53 -1.879)" fill="#ed4815"/>
      <path id="Path_311" data-name="Path 311" d="M579.414,970.756a2.17,2.17,0,1,1-2.17-2.17,2.17,2.17,0,0,1,2.17,2.17" transform="translate(-243.169 -60.179)" fill="#ed4815"/>
    </g>
  </g>
</svg>
